<?xml version="1.0" encoding="utf-8"?>
<!-- Generator: Adobe Illustrator 19.1.0, SVG Export Plug-In . SVG Version: 6.00 Build 0)  -->
<svg version="1.1" id="Layer_1" xmlns="http://www.w3.org/2000/svg" xmlns:xlink="http://www.w3.org/1999/xlink" x="0px" y="0px"
	 viewBox="0 0 51.4 1280" style="enable-background:new 0 0 51.4 1280;" xml:space="preserve">
<path d="M51.4,581c0,38.5,0,77,0,115.5c-0.2,0.9-0.5,1.8-0.6,2.7c-0.3,14.7-0.2,29.3-0.7,44c-1.3,38.1-2.8,76.1-4.4,114.2
	c-0.6,14.2-1.6,28.5-2.5,42.7c-1.3,19.1-2.7,38.1-4.1,57.2c-0.8,10.9-1.6,21.8-2.6,32.7c-1.3,14.8-2.7,29.6-4.1,44.4
	c-0.8,8.7-1.6,17.5-2.6,26.2c-1.3,12.6-2.7,25.3-4.1,37.9c-1.2,10.5-2.4,21-3.7,31.4c-1.7,13.6-3.5,27.3-5.3,40.9
	c-1.2,9.1-2.4,18.3-3.7,27.4c-1.7,12-3.4,23.9-5.3,35.9c-1.3,8.5-2.8,16.9-4.1,25.4c-1,6.8-1.7,13.6-2.6,20.4
	c-0.4-0.1-1.1-0.2-1.1-0.3c-0.1-0.7,0-1.3,0-2C0,852.6,0,427.4,0.1,2.2c0-0.7,0.7-1.5,1.1-2.2c1.8,11.5,3.7,23.1,5.4,34.6
	c2.7,17.9,5.3,35.9,7.8,53.8c2.7,20.1,5.4,40.2,7.8,60.3c2.4,19.6,4.6,39.2,6.7,58.9c2.4,22.9,4.7,45.8,6.7,68.6
	c2.1,23.5,4,46.9,5.6,70.4c2.1,31.7,4.2,63.4,5.5,95.2c1.7,39.7,2.5,79.5,3.7,119.2C50.6,567.7,51,574.3,51.4,581z"/>
</svg>
