<?xml version="1.0" encoding="utf-8"?>
<!-- Generator: Adobe Illustrator 19.1.0, SVG Export Plug-In . SVG Version: 6.00 Build 0)  -->
<svg version="1.1" id="Layer_1" xmlns="http://www.w3.org/2000/svg" xmlns:xlink="http://www.w3.org/1999/xlink" x="0px" y="0px"
	 viewBox="0 0 1280 41" style="enable-background:new 0 0 1280 41;" xml:space="preserve">
<path d="M581,18c38.5,0,77,0,115.5,0c0.9,0.1,1.8,0.2,2.7,0.3c14.7,0.1,29.3,0.1,44,0.3c38.1,0.6,76.1,1.3,114.2,2
	c14.2,0.3,28.5,0.7,42.7,1.1c19.1,0.6,38.1,1.2,57.2,1.8c10.9,0.4,21.8,0.7,32.7,1.2c14.8,0.6,29.6,1.2,44.4,1.8
	c8.7,0.4,17.5,0.7,26.2,1.2c12.6,0.6,25.3,1.2,37.9,1.9c10.5,0.5,21,1.1,31.4,1.6c13.6,0.8,27.3,1.6,40.9,2.4
	c9.1,0.5,18.3,1.1,27.4,1.7c12,0.8,23.9,1.5,35.9,2.4c8.5,0.6,16.9,1.3,25.4,1.8c6.8,0.4,13.6,0.8,20.4,1.2
	c-0.1,0.2-0.2,0.5-0.3,0.5c-0.7,0-1.3,0-2,0C852.6,41,427.4,41,2.2,41c-0.7,0-1.5-0.3-2.2-0.5c11.5-0.8,23.1-1.7,34.6-2.4
	c17.9-1.2,35.9-2.4,53.8-3.5c20.1-1.2,40.2-2.4,60.3-3.5c19.6-1.1,39.2-2.1,58.9-3c22.9-1.1,45.8-2.1,68.6-3
	c23.5-0.9,46.9-1.8,70.4-2.5c31.7-0.9,63.4-1.9,95.2-2.5c39.7-0.7,79.5-1.1,119.2-1.7C567.7,18.4,574.3,18.2,581,18z"/>
</svg>
